<svg width="32" height="32" viewBox="0 0 32 32" fill="none" xmlns="http://www.w3.org/2000/svg">
<path fill-rule="evenodd" clip-rule="evenodd" d="M15 1.99999C12.4289 1.99999 9.91544 2.76245 7.77761 4.19091C5.63977 5.61937 3.97358 7.6497 2.98964 10.0251C2.0057 12.4006 1.74817 15.0144 2.24977 17.5361C2.75138 20.0579 3.98955 22.3743 5.80763 24.1924C7.62572 26.0105 9.94213 27.2486 12.4639 27.7502C14.9856 28.2518 17.5994 27.9944 19.9749 27.0105C22.3503 26.0266 24.3806 24.3602 25.8091 22.2224C27.2376 20.0846 28 17.5711 28 15C28 11.5522 26.6304 8.24558 24.1924 5.80761C21.7544 3.36963 18.4478 1.99999 15 1.99999ZM15 26C12.8244 26 10.6976 25.3549 8.88869 24.1462C7.07975 22.9375 5.66986 21.2194 4.8373 19.2095C4.00473 17.1995 3.78688 14.9878 4.21132 12.854C4.63576 10.7202 5.68344 8.76029 7.22182 7.22191C8.7602 5.68354 10.7202 4.63585 12.854 4.21142C14.9878 3.78698 17.1995 4.00483 19.2095 4.83739C21.2195 5.66996 22.9374 7.07972 24.1461 8.88866C25.3548 10.6976 26 12.8244 26 15C26 17.9174 24.8411 20.7152 22.7782 22.7781C20.7153 24.841 17.9174 26 15 26ZM18.0999 9.15987C17.7544 8.80008 17.3393 8.51445 16.8799 8.32003C16.3019 8.08861 15.6823 7.97958 15.06 7.99996C14.456 7.989 13.8564 8.10491 13.3 8.34005C12.8229 8.54055 12.3985 8.84846 12.06 9.23995C11.7288 9.60019 11.4707 10.0213 11.3 10.4799C11.1413 10.9458 11.0405 11.4294 10.9999 11.9199H13.4599C13.4744 11.4899 13.6534 11.0819 13.9599 10.78C14.1038 10.6302 14.2784 10.5134 14.4717 10.4375C14.6651 10.3615 14.8725 10.3283 15.0799 10.3401C15.2588 10.3116 15.4411 10.3116 15.6199 10.3401C15.7843 10.4022 15.9341 10.4975 16.06 10.6201C16.1989 10.7403 16.3084 10.8908 16.3799 11.06C16.4619 11.2493 16.5028 11.4536 16.4999 11.6599C16.5007 12.0053 16.4256 12.3467 16.28 12.6599C16.1347 12.9857 15.9536 13.2944 15.7399 13.58L15.04 14.4199C14.8 14.6799 14.5599 14.96 14.3399 15.24C14.1266 15.5187 13.9455 15.8205 13.8 16.1399C13.6612 16.4546 13.5929 16.7959 13.5999 17.1399V18.4599H15.9999V17.4799C16.0067 17.1866 16.082 16.8989 16.2199 16.6399C16.3836 16.3515 16.571 16.0774 16.78 15.82L17.4999 14.9399C17.762 14.6371 18.0026 14.3164 18.2199 13.9799C18.4497 13.6369 18.6378 13.2675 18.78 12.8798C18.9258 12.4689 19.0002 12.0362 18.9999 11.6001C19.0035 11.1457 18.9361 10.6935 18.8 10.26C18.649 9.84699 18.4101 9.4716 18.0999 9.15987ZM13.5998 19.6599H15.9398V21.9999H13.5998V19.6599Z" fill="#333333"/>
</svg>
