<svg width="32" height="32" viewBox="0 0 32 32" fill="none" xmlns="http://www.w3.org/2000/svg">
<path d="M6.88269 17.1038L10.6495 18.2805L11.9583 22.5979L11.962 22.6101L11.9664 22.6222C12.0743 22.9218 12.2312 23.1832 12.4805 23.3463C12.7402 23.5161 13.0137 23.5236 13.229 23.4938C13.6844 23.4328 13.9487 23.1769 14.1303 23.0011C14.1417 22.99 14.1529 22.9792 14.1637 22.9688L14.165 22.9676L15.7613 21.4251L19.5009 24.1938L19.5277 24.2137L19.5569 24.2298C19.9877 24.4674 20.487 24.5978 20.9477 24.3899C21.4105 24.1811 21.6479 23.7153 21.7548 23.2041C21.7549 23.2037 21.755 23.2033 21.7551 23.2029L24.4041 10.6981C24.5577 10.0803 24.5554 9.44579 24.1672 9.03553C23.7463 8.5908 23.1231 8.65027 22.6088 8.86018L7.04062 14.8744L7.04061 14.8744L7.03486 14.8767C6.73645 14.9962 6.48185 15.1395 6.28968 15.3096C6.10066 15.4769 5.93328 15.7064 5.90482 15.9947C5.87454 16.3014 6.01209 16.558 6.2017 16.7369C6.38249 16.9076 6.62324 17.0243 6.8812 17.1033C6.8817 17.1035 6.8822 17.1036 6.88269 17.1038ZM16 31.5C7.43934 31.5 0.5 24.5607 0.5 16C0.5 7.43934 7.43934 0.5 16 0.5C24.5607 0.5 31.5 7.43934 31.5 16C31.5 24.5607 24.5607 31.5 16 31.5Z" stroke="white"/>
</svg>
